<svg width="12" height="13" viewBox="0 0 12 13" fill="none" xmlns="http://www.w3.org/2000/svg">
<g clip-path="url(#clip0_475_1182)">
<path d="M0.700795 7.5163C0.450795 7.65761 0.289111 7.86821 0.215741 8.1481C0.142371 8.42799 0.176339 8.69293 0.317643 8.94293L0.839382 9.83967C0.980687 10.0897 1.19128 10.2514 1.47118 10.3247C1.75107 10.3981 2.01601 10.3641 2.26601 10.2228L4.43449 8.97554V11.4783C4.43449 11.7609 4.53775 12.0054 4.74427 12.212C4.9508 12.4185 5.19536 12.5217 5.47797 12.5217H6.52145C6.80406 12.5217 7.04862 12.4185 7.25514 12.212C7.46166 12.0054 7.56493 11.7609 7.56493 11.4783V8.97554L9.7334 10.2228C9.9834 10.3641 10.2483 10.3981 10.5282 10.3247C10.8081 10.2514 11.0187 10.0897 11.16 9.83967L11.6818 8.94293C11.8231 8.69293 11.857 8.42799 11.7837 8.1481C11.7103 7.86821 11.5486 7.65761 11.2986 7.5163L9.13014 6.26087L11.2986 5.00543C11.5486 4.86413 11.7103 4.65353 11.7837 4.37364C11.857 4.09375 11.8231 3.8288 11.6818 3.5788L11.16 2.68207C11.0187 2.43207 10.8081 2.27038 10.5282 2.19701C10.2483 2.12364 9.9834 2.15761 9.7334 2.29891L7.56493 3.5462V1.04348C7.56493 0.76087 7.46166 0.516304 7.25514 0.309783C7.04862 0.103261 6.80406 0 6.52145 0H5.47797C5.19536 0 4.9508 0.103261 4.74427 0.309783C4.53775 0.516304 4.43449 0.76087 4.43449 1.04348V3.5462L2.26601 2.29891C2.01601 2.15761 1.75107 2.12364 1.47118 2.19701C1.19128 2.27038 0.980687 2.43207 0.839382 2.68207L0.317643 3.5788C0.176339 3.8288 0.142371 4.09375 0.215741 4.37364C0.289111 4.65353 0.450795 4.86413 0.700795 5.00543L2.86927 6.26087L0.700795 7.5163Z" fill="#5638B0"/>
</g>
<defs>
<clipPath id="clip0_475_1182">
<rect width="12" height="12.5217" fill="white" transform="matrix(-1 0 0 1 12 0)"/>
</clipPath>
</defs>
</svg>
