<svg width="50" height="50" viewBox="0 0 50 50" fill="none" xmlns="http://www.w3.org/2000/svg">
<rect width="50" height="50" rx="25" fill="#C31C24"/>
<g clip-path="url(#clip0_815_2200)">
<path d="M31.9724 13.8586L25.0004 20.831C22.6765 18.5079 20.3519 16.1825 18.0276 13.8586C15.3389 11.1699 11.1711 15.3391 13.8576 18.0286C16.1823 20.351 18.5076 22.6768 20.8296 25.0006C18.5066 27.3256 16.1826 29.6496 13.8576 31.9726C11.1711 34.6606 15.3393 38.8288 18.0276 36.1426C20.3519 33.8176 22.676 31.4934 25 29.1699L31.972 36.1426C34.6608 38.8306 38.8296 34.661 36.142 31.9726C33.8178 29.6481 31.4931 27.3239 29.1681 24.9999C31.4926 22.6751 33.8173 20.3506 36.142 18.0264C38.83 15.3391 34.6611 11.1699 31.972 13.8601" fill="white"/>
</g>
<defs>
<clipPath id="clip0_815_2200">
<rect width="24" height="24" fill="white" transform="translate(13 13)"/>
</clipPath>
</defs>
</svg>
