<svg width="50" height="50" viewBox="0 0 50 50" fill="none" xmlns="http://www.w3.org/2000/svg">
<path d="M40.625 11.458L39.334 32.3436C39.004 37.6797 38.8392 40.3478 37.5017 42.2661C36.8402 43.2145 35.989 44.0149 35.0015 44.6163C33.0044 45.833 30.3312 45.833 24.9848 45.833C19.6315 45.833 16.9548 45.833 14.9564 44.614C13.9683 44.0115 13.1167 43.2097 12.4556 42.2597C11.1185 40.3384 10.9572 37.6665 10.6346 32.323L9.375 11.458" stroke="#C31C24" stroke-width="1.5" stroke-linecap="round"/>
<path d="M6.25 11.4587H43.75M33.4494 11.4587L32.0273 8.52476C31.0825 6.57587 30.61 5.60141 29.7952 4.99368C29.6146 4.85887 29.4231 4.73895 29.2229 4.63512C28.3206 4.16699 27.2377 4.16699 25.0719 4.16699C22.8517 4.16699 21.7417 4.16699 20.8243 4.65474C20.621 4.76285 20.427 4.88762 20.2444 5.02776C19.4201 5.66012 18.9596 6.67022 18.0388 8.69045L16.7769 11.4587" stroke="#C31C24" stroke-width="1.5" stroke-linecap="round"/>
<path d="M19.792 34.375V21.875" stroke="#C31C24" stroke-width="1.5" stroke-linecap="round"/>
<path d="M30.208 34.375V21.875" stroke="#C31C24" stroke-width="1.5" stroke-linecap="round"/>
</svg>
