<svg width="27" height="28" viewBox="0 0 27 28" fill="none" xmlns="http://www.w3.org/2000/svg">
<path d="M11.981 16.5896C13.1599 16.5896 14.1193 15.5865 14.1193 14.3539V10.0483C14.1193 9.72817 13.8711 9.46875 13.565 9.46875C13.2589 9.46875 13.0107 9.72817 13.0107 10.0483V14.3539C13.0107 14.9475 12.549 15.4302 11.9813 15.4302C11.6751 15.4302 11.427 15.6897 11.427 16.0098C11.4267 16.3301 11.6748 16.5896 11.981 16.5896Z" fill="#616161" stroke="#616161"/>
<path d="M7.34961 10.4635V12.1194C7.34961 12.508 7.65105 12.8231 8.02267 12.8231C8.39429 12.8231 8.69573 12.508 8.69573 12.1194V10.4635C8.69573 10.0749 8.39429 9.75977 8.02267 9.75977C7.65105 9.75977 7.34961 10.0749 7.34961 10.4635Z" fill="#616161" stroke="#616161"/>
<path d="M19.1089 12.8231C19.4805 12.8231 19.7819 12.508 19.7819 12.1194V10.4635C19.7819 10.0749 19.4805 9.75977 19.1089 9.75977C18.7372 9.75977 18.4358 10.0749 18.4358 10.4635V12.1194C18.4358 12.508 18.7372 12.8231 19.1089 12.8231Z" fill="#616161" stroke="#616161"/>
<path d="M18.314 19.4601C18.1184 19.214 17.7689 19.1802 17.5335 19.385C15.1454 21.4604 11.6787 21.4604 9.29066 19.385C9.05525 19.1805 8.70573 19.2143 8.51011 19.4601C8.3145 19.7062 8.34655 20.0717 8.58223 20.2762C9.98168 21.4924 11.6969 22.1003 13.4125 22.1003C15.1277 22.1003 16.8433 21.4921 18.2427 20.2762C18.4776 20.0717 18.5099 19.7062 18.314 19.4601Z" fill="#616161" stroke="#616161"/>
<path d="M1.68685 10.4408C1.99299 10.4408 2.24111 10.1814 2.24111 9.86129V6.9675C2.24111 4.31724 4.3034 2.16097 6.83816 2.16097H9.60612C9.91225 2.16097 10.1604 1.90155 10.1604 1.58146C10.1604 1.26137 9.91225 1.00195 9.60612 1.00195H6.83816C3.69195 1.00195 1.13232 3.67822 1.13232 6.96779V9.86158C1.1326 10.1814 1.38072 10.4408 1.68685 10.4408Z" fill="#616161" stroke="#616161"/>
<path d="M25.4454 17.5605C25.1393 17.5605 24.8912 17.82 24.8912 18.1401V21.0341C24.8912 23.6844 22.8289 25.8407 20.2941 25.8407H17.5262C17.22 25.8407 16.9719 26.1001 16.9719 26.4202C16.9719 26.7403 17.22 26.9997 17.5262 26.9997H20.2941C23.4403 26.9997 26 24.3234 26 21.0338V18.1401C25.9997 17.82 25.7516 17.5605 25.4454 17.5605Z" fill="#616161" stroke="#616161"/>
<path d="M9.60682 25.8407H6.83886C4.3041 25.8407 2.24181 23.6844 2.24181 21.0341V18.1401C2.24181 17.82 1.99369 17.5605 1.68756 17.5605C1.38142 17.5605 1.1333 17.82 1.1333 18.1401V21.0341C1.1333 24.3237 3.69293 27 6.83914 27H9.60709C9.91323 27 10.1613 26.7405 10.1613 26.4205C10.1611 26.1001 9.91296 25.8407 9.60682 25.8407Z" fill="#616161" stroke="#616161"/>
<path d="M20.2941 1H17.5262C17.22 1 16.9719 1.25942 16.9719 1.57951C16.9719 1.8996 17.22 2.15902 17.5262 2.15902H20.2941C22.8289 2.15902 24.8912 4.31528 24.8912 6.96555V9.85934C24.8912 10.1794 25.1393 10.4389 25.4454 10.4389C25.7516 10.4389 25.9997 10.1794 25.9997 9.85934V6.96584C25.9997 3.67626 23.4401 1 20.2941 1Z" fill="#616161" stroke="#616161"/>
</svg>
