<svg width="16" height="12" viewBox="0 0 16 12" fill="none" xmlns="http://www.w3.org/2000/svg">
<path d="M0.955566 6.82755C0.955566 9.66013 2.85728 11.555 5.99128 11.555H7.45099C8.99785 11.555 9.89528 10.8253 9.91528 9.57955C10.4041 9.42555 10.7056 9.02384 10.7056 8.46127C10.7056 8.27384 10.6653 8.07955 10.605 7.8787C11.1407 7.70441 11.4756 7.2627 11.4756 6.68013C11.4756 6.52584 11.4556 6.36527 11.4019 6.2047H13.6319C14.4821 6.2047 15.0447 5.64213 15.0447 4.85184C15.0447 4.05498 14.4821 3.4927 13.6319 3.4927H8.047C8.01357 3.4927 7.98671 3.4727 7.98671 3.43898C7.98671 3.41213 8.00671 3.39213 8.03357 3.38555L9.105 2.93698C9.80157 2.64213 10.0693 2.03955 9.835 1.41013C9.57385 0.706983 8.89071 0.44584 8.05357 0.740411L4.739 1.91898C2.22757 2.80955 0.955566 4.46355 0.955566 6.82755ZM1.87957 6.86098C1.87957 4.98584 2.74328 3.55298 5.027 2.73584L8.335 1.5507C8.683 1.42327 8.93785 1.51727 9.04471 1.78498C9.13842 2.03927 8.99128 2.27384 8.70328 2.40098L6.66757 3.31184C6.33271 3.45898 6.22557 3.6667 6.22557 3.90098C6.22557 4.18241 6.44642 4.38327 6.75442 4.38327H13.6921C13.9801 4.38327 14.1807 4.57755 14.1807 4.85184C14.1807 5.12641 13.9801 5.31413 13.6921 5.31413H8.73671C8.50242 5.31413 8.32814 5.51498 8.32814 5.74927C8.32814 5.97698 8.50242 6.16441 8.73671 6.16441H10.5179C10.5781 6.27841 10.6119 6.43241 10.6119 6.56613C10.6119 6.90098 10.3907 7.10184 10.0424 7.10184H8.48242C8.23442 7.10184 8.07385 7.30298 8.07385 7.53041C8.07385 7.75155 8.23442 7.95241 8.48242 7.95241H9.74814C9.80814 8.06613 9.84157 8.22041 9.84157 8.34755C9.84157 8.68898 9.62071 8.88327 9.27242 8.88327H8.22785C7.98014 8.88327 7.81271 9.0907 7.81271 9.31841C7.81271 9.53955 7.98014 9.73355 8.22785 9.73355H8.99785C8.99785 10.3296 8.38185 10.6713 7.317 10.6713H6.09842C3.40642 10.6713 1.87957 9.2247 1.87957 6.86098Z" fill="black" fill-opacity="0.8"/>
</svg>
