<svg width="13" height="13" viewBox="0 0 13 13" fill="none" xmlns="http://www.w3.org/2000/svg">
<path d="M2.16738 9.45016L10.6966 0.920997C10.8722 0.745302 11.0959 0.657453 11.3674 0.657453C11.6389 0.657453 11.8625 0.745302 12.0382 0.920997C12.2139 1.09669 12.3018 1.3203 12.3018 1.59183C12.3018 1.86336 12.2139 2.08697 12.0382 2.26266L3.50905 10.7918L10.7924 10.7918C11.0639 10.7918 11.2914 10.8838 11.4747 11.0678C11.6581 11.2518 11.7501 11.4793 11.7507 11.7502C11.7514 12.0211 11.6594 12.2485 11.4747 12.4325C11.2901 12.6165 11.0626 12.7085 10.7924 12.7085L1.20905 12.7085C0.937521 12.7085 0.709758 12.6165 0.525758 12.4325C0.341758 12.2485 0.250077 12.0211 0.250716 11.7502L0.250717 2.16683C0.250717 1.8953 0.342717 1.66754 0.526717 1.48354C0.710717 1.29954 0.938161 1.20786 1.20905 1.2085C1.47994 1.20913 1.70738 1.30113 1.89138 1.4845C2.07538 1.66786 2.16738 1.8953 2.16738 2.16683L2.16738 9.45016Z" fill="#0BA81D"/>
</svg>
