<svg width="15" height="15" viewBox="0 0 15 15" fill="none" xmlns="http://www.w3.org/2000/svg">
<g clip-path="url(#clip0_469_1179)">
<path d="M10.1947 0.92441C10.2758 0.971444 10.3386 1.0446 10.3728 1.13193C10.407 1.21925 10.4105 1.31559 10.3829 1.4052L8.88995 6.2562H11.6445C11.7255 6.25617 11.8047 6.27984 11.8723 6.3243C11.94 6.36876 11.9931 6.43205 12.0252 6.50637C12.0573 6.58069 12.0669 6.66278 12.0529 6.7425C12.0389 6.82223 12.0018 6.8961 11.9463 6.955L5.3147 14.0011C5.25053 14.0693 5.16515 14.1138 5.07246 14.1273C4.97977 14.1408 4.88525 14.1225 4.80429 14.0753C4.72334 14.0282 4.66073 13.9551 4.62667 13.8678C4.59261 13.7806 4.5891 13.6844 4.61673 13.5949L6.10966 8.74304H3.35507C3.27412 8.74307 3.19493 8.7194 3.12728 8.67494C3.05963 8.63049 3.00648 8.56719 2.97439 8.49287C2.9423 8.41855 2.93267 8.33646 2.9467 8.25674C2.96073 8.17701 2.9978 8.10314 3.05333 8.04424L9.68491 0.998187C9.749 0.930046 9.83425 0.88559 9.92681 0.872045C10.0194 0.8585 10.1138 0.876663 10.1947 0.923581V0.92441Z" fill="#FF7517"/>
</g>
<defs>
<clipPath id="clip0_469_1179">
<rect width="13.2632" height="13.2632" fill="white" transform="translate(0.868164 0.868652)"/>
</clipPath>
</defs>
</svg>
