<svg width="15" height="15" viewBox="0 0 15 15" fill="none" xmlns="http://www.w3.org/2000/svg">
<path d="M10.2344 7.49951C10.5245 7.49951 10.8027 7.61475 11.0078 7.81986C11.2129 8.02498 11.3281 8.30318 11.3281 8.59326V11.8745C11.3281 12.1646 11.2129 12.4428 11.0078 12.6479C10.8027 12.853 10.5245 12.9683 10.2344 12.9683H4.76562C4.47554 12.9683 4.19734 12.853 3.99223 12.6479C3.78711 12.4428 3.67188 12.1646 3.67188 11.8745V8.59326C3.67188 8.30318 3.78711 8.02498 3.99223 7.81986C4.19734 7.61475 4.47554 7.49951 4.76562 7.49951V4.76514C4.76562 4.03994 5.05371 3.34444 5.5665 2.83164C6.0793 2.31885 6.7748 2.03076 7.5 2.03076C8.2252 2.03076 8.9207 2.31885 9.4335 2.83164C9.94629 3.34444 10.2344 4.03994 10.2344 4.76514V7.49951ZM7.5 11.3276C7.79008 11.3276 8.06828 11.2124 8.2734 11.0073C8.47852 10.8022 8.59375 10.524 8.59375 10.2339C8.59375 9.94381 8.47852 9.66561 8.2734 9.46049C8.06828 9.25537 7.79008 9.14014 7.5 9.14014C7.20992 9.14014 6.93172 9.25537 6.7266 9.46049C6.52148 9.66561 6.40625 9.94381 6.40625 10.2339C6.40625 10.524 6.52148 10.8022 6.7266 11.0073C6.93172 11.2124 7.20992 11.3276 7.5 11.3276ZM9.14062 7.49951V4.76514C9.14062 4.54969 9.09819 4.33635 9.01574 4.1373C8.93329 3.93825 8.81244 3.75739 8.6601 3.60504C8.50775 3.45269 8.32689 3.33185 8.12784 3.2494C7.92879 3.16695 7.71545 3.12451 7.5 3.12451C7.28455 3.12451 7.07121 3.16695 6.87216 3.2494C6.67311 3.33185 6.49225 3.45269 6.3399 3.60504C6.18756 3.75739 6.06671 3.93825 5.98426 4.1373C5.90181 4.33635 5.85938 4.54969 5.85938 4.76514V7.49951H9.14062Z" fill="#FF7517"/>
</svg>
