<svg width="13" height="13" viewBox="0 0 13 13" fill="none" xmlns="http://www.w3.org/2000/svg">
<path d="M10.3326 3.54984L1.80345 12.079C1.62776 12.2547 1.40414 12.3425 1.13262 12.3425C0.861089 12.3425 0.637478 12.2547 0.461783 12.079C0.286089 11.9033 0.198242 11.6797 0.198242 11.4082C0.198242 11.1366 0.286089 10.913 0.461783 10.7373L8.99095 2.20817H1.70762C1.43609 2.20817 1.20864 2.11617 1.02528 1.93217C0.841923 1.74817 0.749923 1.52073 0.749284 1.24984C0.748645 0.978948 0.840645 0.751504 1.02528 0.567504C1.20992 0.383504 1.43737 0.291504 1.70762 0.291504H11.291C11.5625 0.291504 11.7902 0.383504 11.9742 0.567504C12.1582 0.751504 12.2499 0.978948 12.2493 1.24984V10.8332C12.2493 11.1047 12.1573 11.3325 11.9733 11.5165C11.7893 11.7005 11.5618 11.7921 11.291 11.7915C11.0201 11.7909 10.7926 11.6989 10.6086 11.5155C10.4246 11.3321 10.3326 11.1047 10.3326 10.8332V3.54984Z" fill="#C33C3C"/>
</svg>
