<svg width="18" height="19" viewBox="0 0 18 19" fill="none" xmlns="http://www.w3.org/2000/svg">
<g clip-path="url(#clip0_684_1644)">
<path d="M9.44439 17.9433L9.43614 17.9448L9.38289 17.9711L9.36789 17.9741L9.35739 17.9711L9.30414 17.9448C9.29614 17.9423 9.29014 17.9436 9.28614 17.9486L9.28314 17.9561L9.27039 18.2771L9.27414 18.2921L9.28164 18.3018L9.35964 18.3573L9.37089 18.3603L9.37989 18.3573L9.45789 18.3018L9.46689 18.2898L9.46989 18.2771L9.45714 17.9568C9.45514 17.9488 9.45089 17.9443 9.44439 17.9433ZM9.64314 17.8586L9.63339 17.8601L9.49464 17.9298L9.48714 17.9373L9.48489 17.9456L9.49839 18.2681L9.50214 18.2771L9.50814 18.2823L9.65889 18.3521C9.66839 18.3546 9.67564 18.3526 9.68064 18.3461L9.68364 18.3356L9.65814 17.8751C9.65564 17.8661 9.65064 17.8606 9.64314 17.8586ZM9.10689 17.8601C9.10359 17.8581 9.09963 17.8574 9.09586 17.8583C9.09209 17.8591 9.08879 17.8614 9.08664 17.8646L9.08214 17.8751L9.05664 18.3356C9.05714 18.3446 9.06139 18.3506 9.06939 18.3536L9.08064 18.3521L9.23139 18.2823L9.23889 18.2763L9.24189 18.2681L9.25464 17.9456L9.25239 17.9366L9.24489 17.9291L9.10689 17.8601Z" fill="#8776FF" fill-opacity="0.8"/>
<path d="M9 2C13.1423 2 16.5 5.35775 16.5 9.5C16.5 13.6423 13.1423 17 9 17C4.85775 17 1.5 13.6423 1.5 9.5C1.5 5.35775 4.85775 2 9 2ZM8.9925 8H8.25C8.05884 8.00021 7.87498 8.07341 7.73597 8.20464C7.59697 8.33586 7.51332 8.51521 7.50212 8.70605C7.49092 8.89688 7.55301 9.08478 7.6757 9.23137C7.79839 9.37796 7.97243 9.47217 8.16225 9.49475L8.25 9.5V13.2425C8.25 13.6325 8.5455 13.955 8.925 13.9955L9.0075 14H9.375C9.53273 14 9.68645 13.9503 9.8143 13.8579C9.94215 13.7655 10.0376 13.6352 10.0871 13.4854C10.1366 13.3356 10.1377 13.1741 10.0901 13.0237C10.0425 12.8733 9.94866 12.7418 9.822 12.6478L9.75 12.6005V8.7575C9.75 8.3675 9.4545 8.045 9.075 8.0045L8.9925 8ZM9 5.75C8.80109 5.75 8.61032 5.82902 8.46967 5.96967C8.32902 6.11032 8.25 6.30109 8.25 6.5C8.25 6.69891 8.32902 6.88968 8.46967 7.03033C8.61032 7.17098 8.80109 7.25 9 7.25C9.19891 7.25 9.38968 7.17098 9.53033 7.03033C9.67098 6.88968 9.75 6.69891 9.75 6.5C9.75 6.30109 9.67098 6.11032 9.53033 5.96967C9.38968 5.82902 9.19891 5.75 9 5.75Z" fill="#8776FF" fill-opacity="0.8"/>
</g>
<defs>
<clipPath id="clip0_684_1644">
<rect width="18" height="18" fill="white" transform="translate(0 0.5)"/>
</clipPath>
</defs>
</svg>
