<svg width="9" height="11" viewBox="0 0 9 11" fill="none" xmlns="http://www.w3.org/2000/svg">
<path d="M4.22656 7.81316H4.77344V4.72168H4.22656V7.81316ZM4.5 3.85926C4.59552 3.85926 4.67555 3.82699 4.74008 3.76246C4.80424 3.69793 4.83633 3.61809 4.83633 3.52293C4.83633 3.42741 4.80406 3.34738 4.73953 3.28285C4.675 3.21832 4.59516 3.18624 4.5 3.1866C4.40484 3.18697 4.325 3.21923 4.26047 3.2834C4.19594 3.34756 4.16367 3.42759 4.16367 3.52348C4.16367 3.61936 4.19594 3.69921 4.26047 3.76301C4.325 3.82681 4.40484 3.85889 4.5 3.85926ZM4.5 10.401C3.40115 10.0747 2.48841 9.40913 1.7618 8.40434C1.03518 7.39954 0.671875 6.26733 0.671875 5.0077V2.0502L4.5 0.620117L8.32812 2.0502V5.0077C8.32812 6.26697 7.96482 7.399 7.2382 8.40379C6.51159 9.40858 5.59885 10.0739 4.5 10.401Z" fill="#FF7517"/>
</svg>
