<svg width="32" height="24" viewBox="0 0 32 24" fill="none" xmlns="http://www.w3.org/2000/svg">
<g clip-path="url(#clip0_4001_14231)">
<g clip-path="url(#clip1_4001_14231)">
<rect y="0.363647" width="32" height="23.2727" rx="2.90909" fill="#1A47B8"/>
<path d="M28.9524 0.363647H3.04762C1.36447 0.363647 0 1.75292 0 3.46668V20.5333C0 22.2471 1.36447 23.6364 3.04762 23.6364H28.9524C30.6355 23.6364 32 22.2471 32 20.5333V3.46668C32 1.75292 30.6355 0.363647 28.9524 0.363647Z" fill="#1A47B8"/>
<path opacity="0.5" fill-rule="evenodd" clip-rule="evenodd" d="M6.09521 18.2061L7.61902 17.4303L8.38093 15.8788L9.14283 17.4303L10.6666 18.2061L9.14283 18.9818L8.38093 20.5333L7.61902 18.9818L6.09521 18.2061ZM21.3333 5.01819V6.5697H22.8571V5.01819H21.3333ZM25.9047 6.5697V8.12122H27.4285V6.5697H25.9047ZM19.8095 9.67273V11.2242H21.3333V9.67273H19.8095ZM24.3809 11.2242V12.7758H25.9047V11.2242H24.3809ZM22.8571 15.8788V17.4303H24.3809V15.8788H22.8571Z" fill="white"/>
<path d="M13.7142 1.91516H3.04749C2.20591 1.91516 1.52368 2.6098 1.52368 3.46668V11.2243C1.52368 12.0811 2.20591 12.7758 3.04749 12.7758H13.7142C14.5557 12.7758 15.238 12.0811 15.238 11.2243V3.46668C15.238 2.6098 14.5557 1.91516 13.7142 1.91516Z" fill="white"/>
<path fill-rule="evenodd" clip-rule="evenodd" d="M7.61904 8.12128H3.04761V6.56977H7.61904V3.46674H9.14285V6.56977H13.7143V8.12128H9.14285V11.2243H7.61904V8.12128ZM11.4286 9.6728V11.2243H13.7143V9.6728H11.4286ZM11.4286 3.46674V5.01825H13.7143V3.46674H11.4286ZM3.04761 9.6728V11.2243H5.33332V9.6728H3.04761ZM3.04761 3.46674V5.01825H5.33332V3.46674H3.04761Z" fill="#F93939"/>
</g>
</g>
<defs>
<clipPath id="clip0_4001_14231">
<rect width="32" height="23.2727" fill="white" transform="translate(0 0.363647)"/>
</clipPath>
<clipPath id="clip1_4001_14231">
<rect y="0.363647" width="32" height="23.2727" rx="2.90909" fill="white"/>
</clipPath>
</defs>
</svg>
