<svg width="45" height="30" viewBox="0 0 45 30" fill="none" xmlns="http://www.w3.org/2000/svg">
<g clip-path="url(#clip0_571_18344)">
<path d="M3.75 0C1.68119 0 0 1.68115 0 3.75V26.25C0 28.3189 1.68119 30 3.75 30H14.5H15.5H41.25C43.3189 30 45 28.3189 45 26.25V15.5V14.5V3.75C45 1.68115 43.3189 0 41.25 0H15.5H14.5H3.75Z" fill="#3B3C3D"/>
<path d="M3.75 1H14.5V29H3.75C2.21788 29 1 27.7822 1 26.25V3.75C1 2.21785 2.21788 1 3.75 1Z" fill="#3AB37C"/>
<path d="M15.5 1H41.25C42.7822 1 44 2.21785 44 3.75V14.5H15.5V1Z" fill="#FAD741"/>
<path d="M15.5 15.5H44V26.25C44 27.7822 42.7822 29 41.25 29H15.5V15.5Z" fill="#EA6153"/>
</g>
<defs>
<clipPath id="clip0_571_18344">
<rect width="45" height="30" fill="white"/>
</clipPath>
</defs>
</svg>
