<svg width="40" height="40" viewBox="0 0 40 40" fill="none" xmlns="http://www.w3.org/2000/svg">
<path d="M2.6875 10.8125C2.6875 9.70793 3.58293 8.8125 4.6875 8.8125H35.3125C36.4171 8.8125 37.3125 9.70793 37.3125 10.8125V20H2.6875V10.8125Z" fill="#FF3334"/>
<path d="M2.6875 20H37.3125V29.1875C37.3125 30.2921 36.4171 31.1875 35.3125 31.1875H4.6875C3.58293 31.1875 2.6875 30.2921 2.6875 29.1875V20Z" fill="#019966"/>
<path d="M16.375 19.25C16.375 19.25 16.375 19.1875 16.375 19.25V19.25ZM23.625 19.25C23.625 19.1875 23.625 19.25 23.625 19.25V19.25ZM23.625 19.25H20.875L20 16.5L19.125 19.1875H16.375C16.5625 19.25 18.5625 20.8125 18.5625 20.8125L17.75 23.5L20.0625 21.875L22.375 23.5L21.5625 20.8125C21.5 20.8125 23.4375 19.3125 23.625 19.25V19.25Z" fill="#FCEA10"/>
</svg>
