<svg width="40" height="40" viewBox="0 0 40 40" fill="none" xmlns="http://www.w3.org/2000/svg">
<path d="M13.75 6.25H26.25V33.75H13.75V6.25Z" fill="#EC1C24"/>
<path d="M6.25 6.25C2.10813 6.25 0 9.32813 0 13.125V26.875C0 30.6719 2.10813 33.75 6.25 33.75H13.75V6.25H6.25Z" fill="#007A5E"/>
<path d="M33.7492 6.25H26.2492V33.75H33.7492C37.8911 33.75 39.9992 30.6719 39.9992 26.875V13.125C39.9992 9.32813 37.8911 6.25 33.7492 6.25ZM25.288 17.9306L21.4117 17.9375L20.2117 14.0163L19.0155 17.9375L15.1367 17.9306L18.2805 20.3194L17.0605 24.2144L20.2167 21.795L23.373 24.2144L22.1492 20.3194L25.288 17.9306Z" fill="#F9CB38"/>
</svg>
