<svg width="35" height="35" viewBox="0 0 35 35" fill="none" xmlns="http://www.w3.org/2000/svg">
<path d="M35 23.5156C35 26.8379 33.1554 29.5312 29.5312 29.5312H5.46875C1.84461 29.5312 0 26.8379 0 23.5156V11.4844C0 8.16211 1.84461 5.46875 5.46875 5.46875H29.5312C33.1554 5.46875 35 8.16211 35 11.4844V23.5156Z" fill="#EC1C24"/>
<path d="M7.09508 9.10812L8.26484 11.4837L10.8871 11.8638L8.99109 13.7095L9.43789 16.3236L7.09508 15.0904L4.75172 16.3236L5.19906 13.7095L3.30469 11.8638L5.92258 11.4837L7.09508 9.10812ZM11.2163 7.10547L11.5406 7.76445L12.2702 7.87L11.7435 8.38352L11.8666 9.10812L11.2163 8.76578L10.5666 9.10812L10.6897 8.38352L10.1636 7.87L10.8915 7.76445L11.2163 7.10547ZM13.3223 9.47562L13.6472 10.1341L14.3734 10.2402L13.849 10.7548L13.9726 11.4783L13.3223 11.1365L12.6727 11.4783L12.7957 10.7548L12.2702 10.2402L12.997 10.1341L13.3223 9.47562ZM13.3223 13.2797L13.6472 13.9398L14.3734 14.0453L13.849 14.5588L13.9726 15.2834L13.3223 14.9422L12.6727 15.2834L12.7957 14.5588L12.2702 14.0453L12.997 13.9398L13.3223 13.2797ZM11.2163 15.9517L11.5406 16.6107L12.2702 16.7157L11.7435 17.2287L11.8666 17.9544L11.2163 17.6142L10.5666 17.9544L10.6897 17.2287L10.1636 16.7157L10.8915 16.6107L11.2163 15.9517Z" fill="#F9CB38"/>
</svg>
