<svg width="40" height="40" viewBox="0 0 40 40" fill="none" xmlns="http://www.w3.org/2000/svg">
<g clip-path="url(#clip0_7361_39960)">
<path d="M35.5556 5.55554H4.44444C3.2657 5.55554 2.13524 6.02379 1.30175 6.85729C0.468253 7.69078 0 8.82125 0 9.99999L0 30C0 31.1787 0.468253 32.3092 1.30175 33.1427C2.13524 33.9762 3.2657 34.4444 4.44444 34.4444H35.5556C36.7343 34.4444 37.8648 33.9762 38.6983 33.1427C39.5317 32.3092 40 31.1787 40 30V9.99999C40 8.82125 39.5317 7.69078 38.6983 6.85729C37.8648 6.02379 36.7343 5.55554 35.5556 5.55554Z" fill="#003399"/>
<path d="M20.5983 10.7833L21.5416 10.0978H20.376L20.0149 8.98889L19.6549 10.0978H18.4894L19.4327 10.7833L19.0716 11.8922L20.0149 11.2067L20.9583 11.8922L20.5983 10.7833ZM20.5983 30.0422L21.5416 29.3567H20.376L20.0149 28.2478L19.6549 29.3567H18.4894L19.4327 30.0422L19.0716 31.1511L20.0149 30.4656L20.9583 31.1511L20.5983 30.0422ZM10.9694 20.4122L11.9127 19.7267H10.746L10.386 18.6178L10.0249 19.7267H8.85938L9.80271 20.4122L9.44271 21.5211L10.386 20.8356L11.3294 21.5211L10.9694 20.4122ZM12.1994 15.6511L13.1427 14.9656H11.976L11.616 13.8567L11.256 14.9656H10.0894L11.0327 15.6511L10.6727 16.76L11.616 16.0744L12.5594 16.76L12.1994 15.6511ZM12.1994 25.2278L13.1427 24.5422H11.976L11.616 23.4333L11.256 24.5422H10.0894L11.0327 25.2278L10.6727 26.3367L11.616 25.6511L12.5594 26.3367L12.1994 25.2278ZM15.7838 12.0733L16.7272 11.3878H15.5605L15.2005 10.2789L14.8405 11.3878H13.6738L14.6172 12.0733L14.2572 13.1822L15.2005 12.4967L16.1438 13.1822L15.7838 12.0733ZM15.7838 28.8144L16.7272 28.1289H15.5605L15.2005 27.02L14.8405 28.1289H13.6738L14.6172 28.8144L14.2572 29.9233L15.2005 29.2389L16.1438 29.9233L15.7838 28.8144ZM29.0294 20.4122L28.086 19.7267H29.2527L29.6127 18.6178L29.9738 19.7267H31.1394L30.196 20.4122L30.556 21.5211L29.6127 20.8356L28.6694 21.5211L29.0294 20.4122ZM27.7994 15.6511L26.856 14.9656H28.0227L28.3827 13.8567L28.7427 14.9656H29.9094L28.966 15.6511L29.326 16.76L28.3827 16.0744L27.4394 16.76L27.7994 15.6511ZM27.7994 25.2278L26.856 24.5422H28.0227L28.3827 23.4333L28.7427 24.5422H29.9094L28.966 25.2278L29.326 26.3367L28.3827 25.6511L27.4394 26.3367L27.7994 25.2278ZM24.2149 12.0733L23.2716 11.3878H24.4383L24.7983 10.2789L25.1583 11.3878H26.3249L25.3816 12.0733L25.7416 13.1822L24.7983 12.4967L23.8549 13.1822L24.2149 12.0733ZM24.2149 28.8144L23.2716 28.1289H24.4383L24.7983 27.02L25.1583 28.1289H26.3249L25.3816 28.8144L25.7416 29.9233L24.7983 29.2389L23.8549 29.9233L24.2149 28.8144Z" fill="#FFCC00"/>
</g>
<defs>
<clipPath id="clip0_7361_39960">
<rect width="40" height="40" fill="white"/>
</clipPath>
</defs>
</svg>
