<svg width="40" height="40" viewBox="0 0 40 40" fill="none" xmlns="http://www.w3.org/2000/svg">
<path d="M13.75 33.75H33.75C37.8919 33.75 40 30.6719 40 26.875V20.625H13.75V33.75Z" fill="#00785E"/>
<path d="M33.75 6.25H13.75V20.625H40V13.125C40 9.32812 37.8919 6.25 33.75 6.25Z" fill="#F9CB38"/>
<path d="M13.75 6.25H6.25C2.10813 6.25 0 9.32812 0 13.125V26.875C0 30.6719 2.10813 33.75 6.25 33.75H13.75V6.25Z" fill="#EC1C24"/>
<path d="M11.9139 18.348L7.97453 18.358L6.75578 14.3711L5.54016 18.358L1.59766 18.348L4.79078 20.7748L3.55578 24.7336L6.75828 22.2736L9.96578 24.7336L8.72703 20.7748L11.9139 18.348Z" fill="#25333A"/>
</svg>
