<svg width="35" height="35" viewBox="0 0 35 35" fill="none" xmlns="http://www.w3.org/2000/svg">
<path d="M0 13.125H35V20.7812H0V13.125Z" fill="#E6E7E8"/>
<path d="M29.5312 4.92188H5.46875C1.84461 4.92188 0 7.61523 0 10.9375V13.125H35V10.9375C35 7.61523 33.1554 4.92188 29.5312 4.92188Z" fill="#FF9933"/>
<path d="M0 22.9688C0 26.291 1.84461 28.9844 5.46875 28.9844H29.5312C33.1554 28.9844 35 26.291 35 22.9688V20.7812H0V22.9688Z" fill="#128807"/>
<path fill-rule="evenodd" clip-rule="evenodd" d="M17.6694 13.4438C18.3682 13.4438 19.0512 13.6511 19.6321 14.0394C20.213 14.4277 20.6657 14.9796 20.9328 15.6253C21.2 16.271 21.2696 16.9813 21.1329 17.6666C20.9962 18.3518 20.6592 18.9811 20.1648 19.4748C19.6703 19.9685 19.0405 20.3044 18.3551 20.4401C17.6696 20.5757 16.9593 20.505 16.3141 20.2369C15.6689 19.9687 15.1177 19.5152 14.7302 18.9337C14.3428 18.3522 14.1366 17.6688 14.1377 16.9701C14.1393 16.0344 14.5121 15.1376 15.1742 14.4765C15.8363 13.8154 16.7337 13.444 17.6694 13.4438ZM15.3151 14.9724C15.3758 15.0413 15.3868 15.1151 15.3463 15.1769C15.3291 15.2054 15.3027 15.227 15.2714 15.2381C15.2473 15.2471 15.2215 15.2501 15.1961 15.2468C15.1706 15.2436 15.1464 15.2342 15.1254 15.2196C15.0303 15.3557 14.9467 15.4994 14.8754 15.6494C14.958 15.7035 14.9854 15.7713 14.958 15.8463C14.9434 15.8844 14.9145 15.9153 14.8774 15.9325C14.8403 15.9496 14.798 15.9517 14.7595 15.9381C14.7201 16.0169 14.6332 16.3494 14.6321 16.4194C14.6683 16.4263 14.7009 16.4459 14.7239 16.4746C14.7484 16.5032 14.7609 16.54 14.759 16.5774C14.7486 16.6803 14.6851 16.724 14.5883 16.7278C14.573 16.8268 14.5747 17.1582 14.59 17.2233C14.6928 17.2342 14.7469 17.2791 14.7557 17.3573C14.7677 17.4415 14.7272 17.4962 14.6288 17.5345C14.6583 17.6969 14.7004 17.8566 14.7557 18.013C14.7942 18.0013 14.8355 18.0027 14.8732 18.0168C14.9099 18.0327 14.9389 18.06 14.9542 18.0978C14.9679 18.1273 14.9706 18.1579 14.9635 18.1902C14.9584 18.2142 14.9478 18.2366 14.9325 18.2558C14.9172 18.275 14.8977 18.2903 14.8754 18.3006C14.9487 18.4527 15.0297 18.596 15.1254 18.7305C15.2107 18.6884 15.285 18.6982 15.3354 18.7584C15.3575 18.7831 15.3701 18.8149 15.3709 18.8481C15.3726 18.8726 15.3683 18.8971 15.3584 18.9196C15.3485 18.9421 15.3333 18.9618 15.314 18.9771C15.4234 19.1051 15.5399 19.2221 15.6668 19.3299C15.7384 19.267 15.8128 19.2571 15.8768 19.302C15.9057 19.3222 15.926 19.349 15.9353 19.3818C15.9419 19.4051 15.9433 19.4295 15.9394 19.4533C15.9354 19.4772 15.9262 19.4998 15.9123 19.5196C16.0507 19.6148 16.1934 19.6968 16.3427 19.7679C16.4007 19.6864 16.4668 19.6591 16.5385 19.6864C16.5697 19.6976 16.5968 19.718 16.6161 19.7449C16.6435 19.7887 16.6473 19.8368 16.6315 19.8882C16.789 19.944 16.9475 19.9867 17.1116 20.0156C17.1439 19.9232 17.1997 19.88 17.274 19.8855C17.3085 19.8882 17.3397 19.8986 17.367 19.9221C17.4053 19.9571 17.4233 20.0014 17.42 20.0561C17.5885 20.0681 17.7531 20.0692 17.9166 20.0561C17.9286 19.9506 17.9707 19.8975 18.0555 19.8855C18.0877 19.881 18.1205 19.8876 18.1485 19.9041C18.169 19.9157 18.1866 19.9317 18.2 19.951C18.2135 19.9703 18.2224 19.9924 18.2261 20.0156C18.3913 19.985 18.5515 19.9429 18.7063 19.8877C18.6926 19.7843 18.7178 19.7225 18.7872 19.6903C18.8125 19.6794 18.8402 19.6751 18.8676 19.6777C18.8961 19.6799 18.9218 19.6886 18.9425 19.7072C18.9628 19.7242 18.9797 19.7449 18.9994 19.7663C19.1485 19.6959 19.2915 19.6134 19.4271 19.5196C19.3713 19.4321 19.4041 19.3485 19.4495 19.3113C19.4653 19.2977 19.4837 19.2874 19.5035 19.281C19.5234 19.2746 19.5443 19.2723 19.5651 19.274C19.5858 19.2758 19.6061 19.2817 19.6245 19.2914C19.643 19.3011 19.6593 19.3143 19.6726 19.3304C19.7989 19.2221 19.9176 19.1046 20.0237 18.9782C19.9619 18.9077 19.9499 18.8333 19.9953 18.7693C20.0136 18.7406 20.0418 18.7196 20.0746 18.7103C20.0979 18.7029 20.1226 18.7009 20.1468 18.7046C20.171 18.7083 20.194 18.7175 20.214 18.7316C20.3097 18.5938 20.3929 18.451 20.4639 18.3012C20.3841 18.2476 20.3551 18.1847 20.3792 18.1131C20.3879 18.0812 20.4072 18.0533 20.4339 18.0338C20.4551 18.0189 20.4795 18.0093 20.5051 18.0055C20.5307 18.0017 20.5569 18.0039 20.5815 18.0119C20.6171 17.9348 20.7057 17.6099 20.7106 17.5312C20.6728 17.5243 20.6386 17.5041 20.6143 17.4743C20.6016 17.4596 20.5921 17.4423 20.5863 17.4237C20.5806 17.405 20.5788 17.3854 20.581 17.366C20.5831 17.3314 20.5974 17.2986 20.6214 17.2736C20.6379 17.2563 20.658 17.2428 20.6804 17.2343C20.7027 17.2258 20.7267 17.2224 20.7505 17.2244C20.7642 17.059 20.7642 16.8927 20.7505 16.7273C20.6461 16.7169 20.5963 16.6764 20.5826 16.5938C20.5765 16.5626 20.5811 16.5302 20.5957 16.502C20.607 16.4801 20.6232 16.4612 20.643 16.4467C20.6629 16.4321 20.6858 16.4224 20.71 16.4183C20.6813 16.2549 20.6387 16.0943 20.5826 15.9381C20.4815 15.9551 20.4191 15.9278 20.3857 15.8578C20.3771 15.839 20.3722 15.8188 20.3715 15.7982C20.3708 15.7776 20.3741 15.757 20.3814 15.7377C20.3887 15.7184 20.3997 15.7008 20.4139 15.6858C20.4281 15.6708 20.4451 15.6588 20.4639 15.6505C20.3931 15.5001 20.3095 15.3562 20.214 15.2201C20.126 15.2622 20.0543 15.2524 20.004 15.1922C19.9817 15.1668 19.9693 15.1342 19.969 15.1003C19.968 15.0763 19.9726 15.0524 19.9825 15.0304C19.9924 15.0085 20.0072 14.9892 20.0259 14.974C19.9179 14.8476 19.8003 14.7297 19.6743 14.6213C19.5988 14.6858 19.5255 14.694 19.4632 14.6492C19.4349 14.6303 19.4141 14.602 19.4047 14.5693C19.3978 14.5464 19.3964 14.5222 19.4004 14.4986C19.4043 14.475 19.4137 14.4526 19.4276 14.4331C19.2913 14.3381 19.1473 14.2545 18.9972 14.1832C18.9409 14.2642 18.8775 14.291 18.8058 14.2669C18.7741 14.2567 18.7463 14.2368 18.7265 14.21C18.7121 14.1887 18.7029 14.1642 18.6997 14.1387C18.6964 14.1131 18.6993 14.0872 18.7079 14.0629C18.5519 14.0065 18.3912 13.9639 18.2278 13.9355C18.1966 14.0241 18.1403 14.07 18.0675 14.0656C18.0335 14.0646 18.0009 14.0522 17.9746 14.0306C17.9551 14.0142 17.9399 13.9933 17.9302 13.9696C17.9206 13.946 17.9169 13.9204 17.9193 13.895C17.7541 13.881 17.588 13.8812 17.4228 13.8956C17.4113 13.994 17.3686 14.0503 17.2959 14.0624C17.2632 14.0693 17.2291 14.0651 17.1991 14.0503C17.1767 14.0393 17.1573 14.023 17.1425 14.003C17.1277 13.9829 17.1178 13.9596 17.1138 13.9349C16.9503 13.9647 16.7896 14.0077 16.6331 14.0635C16.6506 14.1603 16.6232 14.2237 16.5565 14.2581C16.5275 14.2729 16.4969 14.2789 16.463 14.2729C16.4375 14.2694 16.4134 14.2594 16.393 14.2438C16.3725 14.2281 16.3565 14.2075 16.3465 14.1838C16.253 14.2188 15.9555 14.391 15.9161 14.4342C15.9566 14.5152 15.9473 14.5868 15.8915 14.6382C15.8758 14.6521 15.8574 14.6628 15.8374 14.6694C15.8175 14.6761 15.7964 14.6787 15.7754 14.6771C15.7545 14.6754 15.7341 14.6696 15.7154 14.6599C15.6967 14.6502 15.6802 14.6369 15.6668 14.6207C15.5406 14.7286 15.423 14.8462 15.3151 14.9724Z" fill="#010088"/>
<path fill-rule="evenodd" clip-rule="evenodd" d="M19.1844 19.5929C19.1779 19.5858 19.1713 19.5809 19.1664 19.5733C18.8484 19.0872 18.5296 18.6018 18.2099 18.1169C18.2028 18.1033 18.1946 18.0896 18.188 18.0743C18.1136 17.9009 18.0409 17.7276 17.9649 17.5547C17.9623 17.5458 17.9588 17.5372 17.9545 17.529C17.9239 17.5405 17.896 17.5537 17.8632 17.5662L17.8741 17.5941C17.9425 17.762 18.0081 17.9305 18.0775 18.0983C18.0961 18.1432 18.1038 18.1902 18.1136 18.2372C18.1672 18.4883 18.2175 18.7404 18.2717 18.9919L18.4565 19.8904C18.4574 19.8926 18.4578 19.8949 18.4575 19.8972C18.4572 19.8995 18.4563 19.9017 18.4549 19.9036L18.4472 19.8844C18.2974 19.4256 18.1437 18.9673 17.9933 18.5085C17.9632 18.4188 17.9364 18.3302 17.9036 18.2405C17.8883 18.1957 17.8834 18.1497 17.8763 18.1033C17.8571 17.9731 17.8407 17.8419 17.8194 17.7117C17.8167 17.6805 17.8118 17.6499 17.8074 17.6198C17.8061 17.6073 17.804 17.5949 17.8014 17.5826C17.7686 17.5859 17.7385 17.5903 17.7057 17.5941C17.7057 17.6072 17.7068 17.6209 17.7079 17.6346C17.727 17.7948 17.7434 17.9556 17.7664 18.1153C17.7784 18.2028 17.7724 18.2887 17.7675 18.3762C17.7642 18.45 17.7593 18.5238 17.756 18.5982C17.7461 18.748 17.7385 18.8973 17.7281 19.0466L17.7117 19.3551C17.7024 19.5301 17.6914 19.7045 17.6821 19.8784C17.6778 19.9276 17.6767 19.9779 17.6718 20.0261L17.6586 19.8604L17.6417 19.5016L17.622 19.1817C17.6165 19.0723 17.6094 18.9635 17.6034 18.8541C17.5985 18.7825 17.5957 18.7108 17.5914 18.6403C17.5854 18.5271 17.5782 18.4139 17.5728 18.3018C17.5674 18.242 17.5689 18.1818 17.5771 18.1224C17.5886 18.0415 17.5974 17.9589 17.6072 17.8769C17.6182 17.7959 17.6275 17.7144 17.6373 17.6346C17.6384 17.622 17.6384 17.6089 17.64 17.5941L17.5443 17.5815C17.5416 17.6034 17.5367 17.6247 17.5329 17.6466C17.5101 17.8137 17.4868 17.9807 17.4629 18.1476C17.4563 18.2126 17.4306 18.2728 17.4087 18.3335C17.2403 18.8465 17.0713 19.36 16.9007 19.8724C16.8968 19.8817 16.8952 19.8905 16.8881 19.8992C16.8881 19.8926 16.8881 19.8877 16.8908 19.8817C16.9614 19.5361 17.0325 19.1899 17.1057 18.8443C17.1528 18.6146 17.2014 18.3854 17.2479 18.1563L17.2611 18.1186C17.3316 17.9452 17.3994 17.7702 17.4716 17.5969C17.4741 17.5866 17.4778 17.5767 17.4825 17.5673C17.4524 17.5544 17.4222 17.5418 17.3918 17.5296C17.3879 17.5394 17.3819 17.5476 17.3786 17.5575C17.3032 17.7314 17.2293 17.9058 17.1539 18.0797C17.1492 18.0928 17.1433 18.1054 17.1364 18.1175C16.8137 18.6063 16.4919 19.0958 16.1711 19.5858C16.1667 19.5932 16.161 19.5997 16.1542 19.605C16.1569 19.5962 16.1618 19.5891 16.1651 19.5815L16.9559 18.0136C16.9627 17.9993 16.9712 17.9859 16.9811 17.9737L17.319 17.5203C17.3261 17.5126 17.3305 17.5055 17.3371 17.4973C17.3092 17.4771 17.2868 17.4585 17.2589 17.4372C17.2529 17.4443 17.2474 17.4503 17.2425 17.4574C17.1243 17.6056 17.0079 17.7549 16.8925 17.9026C16.8793 17.9162 16.8673 17.9304 16.8525 17.943C16.4216 18.3286 15.9907 18.7119 15.5581 19.098C15.5493 19.1051 15.5406 19.1128 15.5296 19.1177C15.5346 19.1128 15.5373 19.1068 15.5406 19.1029C15.8955 18.7065 16.2477 18.3105 16.601 17.914C16.6212 17.8922 16.6414 17.8703 16.6606 17.8468C16.7011 17.7997 16.7464 17.7582 16.7957 17.721L17.1883 17.412C17.1971 17.4054 17.2036 17.3983 17.2135 17.3918C17.1941 17.3656 17.174 17.3399 17.1533 17.3147C17.1446 17.3201 17.1375 17.3256 17.1293 17.3316C16.9789 17.4443 16.8279 17.5558 16.6775 17.669C16.6607 17.6817 16.6428 17.6929 16.6239 17.7024C16.1104 17.9616 15.5942 18.2208 15.0796 18.4801C15.0697 18.4844 15.0604 18.4899 15.0489 18.4899L15.0697 18.4751L16.03 17.8462C16.1974 17.7363 16.3653 17.6264 16.5315 17.5159C16.5457 17.5077 16.5605 17.5006 16.5731 17.494C16.7475 17.4202 16.9214 17.3458 17.0943 17.2715C17.1025 17.2682 17.1107 17.2649 17.1205 17.26L17.0839 17.1697C17.0735 17.1725 17.0669 17.1752 17.0587 17.1779C16.8815 17.2485 16.706 17.3201 16.5277 17.3901C16.4911 17.4038 16.4511 17.4104 16.4123 17.4186L15.2174 17.6669C15.067 17.6991 14.9139 17.7308 14.7629 17.762C14.7568 17.7635 14.7504 17.7627 14.7449 17.7598C14.7864 17.7467 14.828 17.7319 14.869 17.7183C15.3853 17.5482 15.901 17.3787 16.4156 17.2075C16.4561 17.1938 16.4993 17.19 16.5403 17.1834C16.7065 17.1604 16.8722 17.1364 17.0368 17.1129C17.0469 17.1111 17.057 17.1089 17.0669 17.1063C17.0636 17.0746 17.0587 17.0429 17.056 17.0101L16.9761 17.0188L16.6458 17.0587C16.584 17.0669 16.5228 17.0735 16.4621 17.0812C16.4473 17.0828 16.4331 17.0833 16.4189 17.0828L16.0711 17.0626L15.8654 17.0511L15.5111 17.0303L14.9943 17.0019C14.8696 16.9953 14.7482 16.9871 14.624 16.9783C14.6437 16.9767 14.6656 16.9734 14.6869 16.9734L15.1107 16.9494L15.6707 16.9176L16.1345 16.8914L16.4254 16.8739C16.4369 16.8733 16.4506 16.875 16.4621 16.8761L16.7957 16.916L17.0319 16.9444H17.056C17.0587 16.9133 17.0636 16.8837 17.0669 16.8498C17.0467 16.8454 17.0237 16.8422 17.0035 16.8383C16.8575 16.8181 16.7125 16.7968 16.5665 16.7754C16.5362 16.772 16.5059 16.768 16.4757 16.7634C16.459 16.7612 16.4425 16.7573 16.4265 16.7519C15.9918 16.6092 15.5597 16.4654 15.1255 16.3226C15.0047 16.283 14.884 16.2429 14.7635 16.2023C14.7531 16.1996 14.7432 16.1949 14.7345 16.1887L14.8105 16.204L15.7386 16.397C15.9868 16.449 16.2389 16.5004 16.4872 16.5529C16.5022 16.5562 16.5168 16.5607 16.531 16.5665C16.706 16.6354 16.8793 16.7065 17.056 16.7765L17.0822 16.7869C17.0943 16.7569 17.1074 16.7279 17.1205 16.6967C17.1116 16.6914 17.1023 16.6868 17.0926 16.683C16.9187 16.6097 16.7454 16.5348 16.572 16.4599C16.5584 16.4541 16.5452 16.4474 16.5326 16.4397C16.0421 16.1187 15.5537 15.796 15.0626 15.4744C15.0561 15.4708 15.051 15.4653 15.0479 15.4586L15.0675 15.4695C15.5564 15.7156 16.0459 15.9617 16.5359 16.2072C16.6168 16.2477 16.6956 16.2964 16.7678 16.3516C16.887 16.444 17.0084 16.5326 17.1298 16.6234C17.138 16.6294 17.1451 16.6349 17.1539 16.6404L17.214 16.5644L17.1927 16.5458L16.7481 16.1963C16.7328 16.1843 16.7207 16.1717 16.7076 16.1586C16.3204 15.7249 15.9327 15.2907 15.5466 14.857C15.541 14.8525 15.5367 14.8467 15.534 14.8401C15.5455 14.8412 15.5499 14.8488 15.5548 14.8537C15.7894 15.0615 16.0218 15.2694 16.2548 15.4772L16.8575 16.0142C16.8684 16.024 16.8788 16.0361 16.8886 16.047L17.2337 16.4856C17.2425 16.4954 17.249 16.5058 17.2589 16.519L17.3382 16.4583C17.3332 16.4506 17.3267 16.4446 17.3229 16.4375C17.2102 16.2871 17.0981 16.1362 16.9843 15.9863C16.9726 15.9687 16.9619 15.9504 16.9521 15.9316C16.6896 15.4148 16.4293 14.8958 16.1684 14.3785C16.1635 14.3687 16.1586 14.361 16.1575 14.3506C16.1624 14.3561 16.1673 14.361 16.1706 14.3659L16.7295 15.2201L17.1249 15.8217C17.1386 15.8447 17.1539 15.8687 17.1626 15.8939C17.2364 16.0623 17.3075 16.2313 17.3792 16.3997C17.3841 16.4074 17.3874 16.4156 17.3923 16.4254L17.4831 16.3877L17.4732 16.3647C17.4049 16.1941 17.3382 16.0235 17.2687 15.854C17.2496 15.8108 17.2425 15.7659 17.2332 15.7211C17.1736 15.4362 17.1161 15.1507 17.0565 14.8652C16.998 14.5907 16.9422 14.3183 16.8848 14.0427C16.8837 14.0411 16.8848 14.0389 16.887 14.0334L16.9351 14.1794C17.1068 14.6951 17.2769 15.2119 17.4454 15.7287C17.4596 15.7692 17.4645 15.8135 17.4705 15.8556C17.4907 15.9989 17.511 16.1433 17.5339 16.2876C17.5378 16.315 17.5394 16.3423 17.5449 16.3724L17.64 16.3604V16.3243C17.6264 16.21 17.6116 16.0951 17.5985 15.9814C17.5903 15.9147 17.5843 15.8496 17.575 15.7845C17.5695 15.7407 17.5695 15.6965 17.575 15.6527C17.5788 15.5783 17.5843 15.5045 17.5875 15.4307L17.6143 14.985C17.6193 14.9051 17.6209 14.8242 17.6258 14.7444C17.6329 14.6404 17.6384 14.5349 17.6444 14.4304C17.6493 14.3539 17.6532 14.2768 17.6564 14.2008C17.6608 14.1105 17.6679 14.0208 17.6756 13.9312C17.6778 13.9558 17.6789 13.9809 17.68 14.0072C17.6876 14.1171 17.6931 14.227 17.6997 14.3375L17.7281 14.8384L17.745 15.1195C17.7538 15.2819 17.7614 15.4449 17.7707 15.6073C17.7735 15.6319 17.7746 15.6549 17.7762 15.679C17.7833 15.7424 17.7707 15.8053 17.7653 15.8682L17.7303 16.1547C17.7248 16.2089 17.7166 16.263 17.71 16.3177C17.7089 16.3308 17.7089 16.3451 17.7051 16.3609C17.739 16.3658 17.7696 16.3691 17.8036 16.3735C17.8085 16.35 17.8107 16.3281 17.8145 16.3051C17.8407 16.1274 17.8659 15.9497 17.8911 15.7708C17.8932 15.7577 17.8987 15.744 17.902 15.7304C18.0803 15.1955 18.2553 14.6601 18.4325 14.1242C18.4412 14.0996 18.4478 14.0761 18.4614 14.0526C18.46 14.065 18.458 14.0774 18.4554 14.0897C18.3756 14.4769 18.2925 14.863 18.2132 15.2491C18.1776 15.4301 18.1399 15.6117 18.1022 15.7927C18.0995 15.8077 18.0947 15.8223 18.0879 15.8359L17.8768 16.3637C17.873 16.3713 17.8703 16.3795 17.8664 16.3894C17.8993 16.4019 17.9261 16.4145 17.9578 16.4271L17.9704 16.4008L18.1907 15.8829C18.1995 15.8654 18.2061 15.8485 18.2175 15.8343L19.1718 14.3785C19.1779 14.3708 19.1828 14.3632 19.1921 14.3577C19.1882 14.3654 19.1855 14.373 19.1806 14.3807L18.3958 15.9393C18.3876 15.954 18.3794 15.9688 18.3696 15.9819C18.2558 16.1334 18.1415 16.2849 18.0294 16.4353C18.024 16.4439 18.018 16.4521 18.0114 16.4599L18.089 16.5206C18.0952 16.5141 18.1008 16.5071 18.106 16.4998C18.2219 16.3522 18.3373 16.204 18.4549 16.0563C18.4678 16.0397 18.4823 16.0243 18.4981 16.0104C18.9301 15.6243 19.3627 15.2387 19.7953 14.8537C19.8024 14.8477 19.8073 14.8417 19.8188 14.8384L19.8046 14.8559C19.6279 15.0555 19.4513 15.254 19.2719 15.4526C19.0586 15.6904 18.8481 15.9278 18.6364 16.1657C18.6255 16.1777 18.6124 16.1881 18.6009 16.1979L18.1563 16.5474L18.1344 16.5649C18.1552 16.5912 18.1738 16.6163 18.1957 16.6426L18.2192 16.6251L18.6747 16.2838C18.6863 16.2755 18.6984 16.2679 18.7108 16.2608C19.2358 15.9972 19.7575 15.7347 20.2793 15.4712C20.288 15.4673 20.2951 15.464 20.3044 15.464C20.2804 15.4799 20.2579 15.4952 20.2339 15.51C19.7619 15.8201 19.29 16.1301 18.8164 16.4402C18.8032 16.4479 18.7912 16.4555 18.777 16.4615C18.6025 16.537 18.4264 16.6114 18.2536 16.6863L18.2257 16.6972C18.2405 16.7279 18.2509 16.7569 18.264 16.7875L18.2892 16.7793C18.4647 16.7098 18.6392 16.6371 18.8164 16.5698C18.8601 16.5523 18.9082 16.5447 18.9558 16.5348L19.7614 16.3675C20.0118 16.3161 20.2601 16.2636 20.5111 16.2116C20.5341 16.2067 20.5554 16.2018 20.5795 16.1974C20.5855 16.1974 20.591 16.1963 20.5997 16.1996L20.5232 16.2247C19.9889 16.4014 19.4562 16.5775 18.9219 16.7519C18.8814 16.7662 18.8366 16.77 18.7945 16.7765C18.6747 16.7946 18.5566 16.8104 18.4401 16.8274C18.3975 16.8334 18.3554 16.84 18.3127 16.8454L18.2815 16.8509C18.2848 16.8832 18.2897 16.9133 18.2919 16.9483L18.3745 16.9395L18.6698 16.9045C18.7436 16.8952 18.8207 16.8848 18.8979 16.8777C18.9323 16.875 18.9673 16.8783 19.0029 16.8799C19.0778 16.8832 19.1527 16.8897 19.2309 16.893L19.6728 16.9193C19.7384 16.9231 19.804 16.9258 19.8718 16.9302L20.3225 16.9559C20.4291 16.9625 20.539 16.9674 20.6451 16.974C20.6714 16.9755 20.6977 16.9778 20.7239 16.9811L20.644 16.9876L20.3132 17.0057L19.9036 17.0297L19.5946 17.0462C19.4524 17.0549 19.3075 17.0631 19.1642 17.0724C19.0854 17.0757 19.0045 17.0833 18.9252 17.0839C18.8798 17.085 18.8322 17.0762 18.7879 17.0713C18.6907 17.0599 18.5936 17.0482 18.4964 17.0363L18.31 17.0139H18.2919C18.2897 17.0456 18.2848 17.0768 18.2815 17.1101C18.4743 17.1387 18.6672 17.1666 18.8601 17.1938C18.917 17.2009 18.9668 17.2233 19.0204 17.2403L20.5757 17.7538C20.5858 17.7559 20.5953 17.7602 20.6036 17.7664C20.5904 17.7642 20.5779 17.762 20.5647 17.7609L19.2139 17.4793L18.8574 17.4049C18.8459 17.4016 18.8306 17.3972 18.818 17.3912C18.6425 17.3218 18.4664 17.2507 18.2897 17.1801L18.2662 17.1719C18.2534 17.2019 18.2401 17.2316 18.2263 17.2611L18.2553 17.2747C18.4297 17.3491 18.6031 17.4229 18.7764 17.4979C18.7901 17.5039 18.8038 17.511 18.818 17.5208L20.2738 18.4746C20.2809 18.4801 20.2902 18.4866 20.2962 18.497C20.2891 18.4926 20.2809 18.4899 20.2749 18.4855L19.5164 18.1049C19.2517 17.9704 18.9848 17.8369 18.7174 17.7024C18.7003 17.694 18.6844 17.6835 18.6698 17.6712C18.5194 17.5591 18.3674 17.4465 18.217 17.3333C18.2103 17.3276 18.2032 17.3225 18.1957 17.3179C18.1749 17.3431 18.1563 17.3677 18.1344 17.394L18.1552 17.4104C18.3018 17.5274 18.4511 17.6444 18.5982 17.7609C18.6149 17.7729 18.6301 17.7869 18.6436 17.8025L19.8024 19.0991C19.8071 19.1056 19.8108 19.1128 19.8133 19.1205C19.8073 19.1139 19.7991 19.1095 19.7931 19.1046C19.3583 18.7158 18.923 18.3291 18.4871 17.9408C18.4773 17.9321 18.4684 17.9222 18.4609 17.9113L18.1065 17.4596C18.1016 17.4525 18.0956 17.4459 18.0896 17.4388C18.0644 17.4596 18.0398 17.4782 18.0147 17.5001C18.0168 17.5066 18.0218 17.5137 18.0261 17.5203L18.3701 17.9786C18.3799 17.9919 18.3887 18.006 18.3964 18.0207C18.6572 18.538 18.9175 19.0565 19.1779 19.5744C19.1821 19.5814 19.1849 19.5892 19.1861 19.5973H19.1844V19.5929Z" fill="#010088"/>
<path fill-rule="evenodd" clip-rule="evenodd" d="M19.1787 19.593C19.1842 19.5985 19.1875 19.6045 19.1918 19.6094C19.1891 19.6105 19.1891 19.6122 19.1858 19.6127C19.1847 19.605 19.1809 19.6001 19.1798 19.593H19.1787Z" fill="#010088"/>
</svg>
