<svg width="32" height="24" viewBox="0 0 32 24" fill="none" xmlns="http://www.w3.org/2000/svg">
<g clip-path="url(#clip0_4180_6576)">
<rect y="0.363647" width="32" height="23.2727" rx="2.90909" fill="#151515"/>
<path fill-rule="evenodd" clip-rule="evenodd" d="M0 15.8788H32V17.4304H0V15.8788Z" fill="white"/>
<path fill-rule="evenodd" clip-rule="evenodd" d="M0 17.4303H32V23.6364H0V17.4303Z" fill="#0A6A30"/>
<path fill-rule="evenodd" clip-rule="evenodd" d="M0 8.12122H32V15.8788H0V8.12122Z" fill="#F93939"/>
<path fill-rule="evenodd" clip-rule="evenodd" d="M0 6.5697H32V8.12122H0V6.5697Z" fill="white"/>
<path fill-rule="evenodd" clip-rule="evenodd" d="M18.9165 9.53931C19.0262 9.53931 19.6784 8.4998 19.6784 7.21204C19.6784 5.92738 19.0262 4.88477 18.9165 4.88477C18.8098 4.88477 18.1546 5.92738 18.1546 7.21204C18.1546 8.4998 18.8098 9.53931 18.9165 9.53931ZM14.438 8.8582C14.3618 8.93577 13.1732 8.67201 12.2833 7.76127C11.3919 6.85209 11.1298 5.64501 11.2075 5.56743C11.2837 5.48986 12.4692 5.75361 13.3622 6.66435C14.2551 7.57354 14.5157 8.78062 14.4395 8.85975L14.438 8.8582ZM17.3012 15.8912C17.3774 15.8183 18.566 16.0665 19.4574 16.9152C20.3488 17.7685 20.6109 18.8965 20.5347 18.9694C20.4586 19.0423 19.27 18.7941 18.377 17.9454C17.4856 17.0921 17.2235 15.9641 17.3012 15.8912ZM14.438 15.8912C14.3618 15.8183 13.1732 16.0665 12.2833 16.9152C11.3919 17.7685 11.1298 18.8965 11.2075 18.9694C11.2837 19.0423 12.4692 18.7941 13.3622 17.9454C14.2551 17.0921 14.5157 15.9641 14.4395 15.8912H14.438Z" fill="white"/>
<path fill-rule="evenodd" clip-rule="evenodd" d="M16 18.9818C16.544 18.9818 19.8095 15.8555 19.8095 12C19.8095 8.14449 16.544 5.01819 16 5.01819C15.456 5.01819 12.1904 8.14449 12.1904 12C12.1904 15.8555 15.456 18.9818 16 18.9818Z" fill="#F93939"/>
<path fill-rule="evenodd" clip-rule="evenodd" d="M12.9523 14.3273C13.059 14.3273 13.7142 13.2847 13.7142 12.0001C13.7142 10.7154 13.059 9.67279 12.9523 9.67279C12.8457 9.67279 12.1904 10.7154 12.1904 12.0001C12.1904 13.2847 12.8457 14.3273 12.9523 14.3273ZM19.0476 14.3273C19.1542 14.3273 19.8095 13.2847 19.8095 12.0001C19.8095 10.7154 19.1542 9.67279 19.0476 9.67279C18.9409 9.67279 18.2857 10.7154 18.2857 12.0001C18.2857 13.2847 18.9409 14.3273 19.0476 14.3273Z" fill="#151515"/>
<path d="M16.7618 12.0001C16.7618 10.7147 16.4207 9.67279 15.9999 9.67279C15.5792 9.67279 15.238 10.7147 15.238 12.0001C15.238 13.2854 15.5792 14.3273 15.9999 14.3273C16.4207 14.3273 16.7618 13.2854 16.7618 12.0001Z" fill="white"/>
</g>
<defs>
<clipPath id="clip0_4180_6576">
<rect y="0.363647" width="32" height="23.2727" rx="2.90909" fill="white"/>
</clipPath>
</defs>
</svg>
