<svg width="45" height="30" viewBox="0 0 45 30" fill="none" xmlns="http://www.w3.org/2000/svg">
<path d="M30.5 0H41.25C43.3188 0 45 1.68103 45 3.74988V26.2499C45 28.3187 43.3188 29.9999 41.25 29.9999H15.5H14.5H3.75C1.68112 29.9999 0 28.3187 0 26.2499V3.74988C0 1.68103 1.68112 0 3.75 0H14.5H15.5H29.5H30.5Z" fill="#3B3C3D"/>
<path d="M41.25 1H30.5V29.0001H41.25C42.7821 29.0001 44 27.7821 44 26.25V3.75C44 2.21785 42.7821 1 41.25 1Z" fill="#EA6153"/>
<path d="M29.5 1H15.5V29.0001H29.5V1Z" fill="#FAD741"/>
<path d="M14.5 1H3.75C2.21781 1 0.999998 2.21785 0.999998 3.75V26.25C0.999998 27.7821 2.21781 29.0001 3.75 29.0001H14.5V1Z" fill="#3AB37C"/>
<path d="M24.5922 18.2266L22.4991 16.7042L20.4001 18.2217L21.2011 15.7606L19.1093 14.2333L21.6974 14.2346L22.5036 11.7731L23.3021 14.235L25.8923 14.2411L23.7976 15.7613L24.5922 18.2266Z" fill="#3AB37C"/>
</svg>
