<svg width="40" height="40" viewBox="0 0 40 40" fill="none" xmlns="http://www.w3.org/2000/svg">
<g clip-path="url(#clip0_2945_17793)">
<path d="M6.69829e-05 23.125V26.875C6.69829e-05 27.6306 0.087567 28.3556 0.253817 29.0356L9.85132 23.125H6.69829e-05ZM0.228192 11.0556C0.0739412 11.7345 -0.00259234 12.4288 6.69829e-05 13.125V16.875H9.40507L0.228192 11.0556ZM40.0001 16.875V13.125C40.0001 9.32812 37.8919 6.25 33.7501 6.25H6.25007C5.67007 6.25 5.13507 6.31563 4.63507 6.43L21.2501 16.875H40.0001Z" fill="#EC1C24"/>
<path d="M21.8748 15.625L7.33102 6.25H6.24977C5.66977 6.25 5.13477 6.31563 4.63477 6.43L21.2498 16.875H39.9998V15.625H21.8748Z" fill="#E6E7E8"/>
<path d="M4.69922 33.5856C5.18047 33.6906 5.69547 33.75 6.25047 33.75H33.7505C37.8923 33.75 40.0005 30.6719 40.0005 26.875V23.125H21.2505L4.69922 33.5856Z" fill="#2B3990"/>
<path d="M7.40609 33.75L21.8755 24.375H40.0005V23.125H21.2505L4.69922 33.5856C5.18047 33.6906 5.69547 33.75 6.25047 33.75H7.40609Z" fill="#E6E7E8"/>
<path d="M9.37539 23.1197L9.35227 23.1166L0.254141 29.0341C0.811641 31.3134 2.29977 33.0634 4.69852 33.5847L21.2504 23.1247H40.0004V16.8747H21.2504L4.63539 6.42969C2.24227 6.97594 0.764141 8.75156 0.228516 11.0553L9.40539 16.8747H9.37539L13.7504 19.9997" fill="#29B473"/>
<path d="M0.229439 11.0527C0.0744242 11.7326 -0.00253163 12.4279 6.35005e-05 13.1252V26.8752C6.35005e-05 27.6171 0.0831885 28.329 0.243189 28.9977L14.3751 20.0002L0.229439 11.0527Z" fill="#25333A"/>
<path d="M0.228594 11.0527C0.0929688 11.6352 0.0273438 12.2546 0.0117188 12.8921L11.2492 20.0002L0.0148438 27.1527C0.0329688 27.7927 0.102969 28.4152 0.241719 28.9977L14.3742 20.0002L0.228594 11.0527Z" fill="#DBAD2B"/>
</g>
<defs>
<clipPath id="clip0_2945_17793">
<rect width="40" height="40" fill="white"/>
</clipPath>
</defs>
</svg>
