<svg width="40" height="40" viewBox="0 0 40 40" fill="none" xmlns="http://www.w3.org/2000/svg">
<path d="M39.375 29.5C39.375 31.625 37.6875 33.3125 35.625 33.3125H4.375C2.3125 33.3125 0.625 31.625 0.625 29.5V10.5C0.625 8.375 2.3125 6.6875 4.375 6.6875H35.625C37.6875 6.6875 39.375 8.375 39.375 10.5V29.5Z" fill="#F7C910"/>
<path d="M4.375 6.6875H35.625C37.6875 6.6875 39.375 8.375 39.375 10.5V29.5C39.375 31.625 37.6875 33.3125 35.625 33.3125" fill="#F4AE11"/>
<path d="M4.375 6.6875H35.625C37.6875 6.6875 39.375 8.375 39.375 10.5V17.4375" fill="#D8940E"/>
<path d="M0.625 10.5V12.0625H39.375V10.5C39.375 8.5625 37.9375 7 36.125 6.75H3.875C2.0625 6.9375 0.625 8.5625 0.625 10.5Z" fill="#2A9847"/>
<path d="M39.3125 9.8125C39.3125 9.8125 39.3125 9.75 39.3125 9.8125C39.25 9.5625 39.1875 9.375 39.125 9.125V9.0625C39.0625 8.875 38.9375 8.6875 38.875 8.5C38.875 8.5 38.875 8.4375 38.8125 8.4375C38.6875 8.25 38.5625 8.125 38.4375 7.9375L38.375 7.875C38.25 7.6875 38.0625 7.5625 37.9375 7.4375C37.4375 7 36.8125 6.75 36.125 6.625H4.375L10.6875 12H39.375V10.4375C39.375 10.25 39.375 10.0625 39.3125 9.8125Z" fill="#1B8935"/>
<path d="M39.375 10.125C39.375 10 39.375 9.9375 39.3125 9.8125V9.75C39.25 9.5625 39.1875 9.375 39.125 9.125V9.0625C39.0625 8.875 38.9375 8.6875 38.875 8.5C38.875 8.5 38.875 8.4375 38.8125 8.4375C38.6875 8.25 38.5625 8.125 38.4375 7.9375L38.375 7.875C38.25 7.6875 38.0625 7.5625 37.9375 7.4375C37.8125 7.3125 37.6875 7.25 37.5625 7.1875C37.125 6.9375 36.6875 6.75 36.1875 6.6875H4.5L22 12.0625H39.375V10.125V10.125Z" fill="#0F7224"/>
<path d="M0.625 17.3125H39.375V22.6875H0.625V17.3125Z" fill="#2A9847"/>
<path d="M23.125 22.6875H39.375V17.3125H16.875L23.125 22.6875Z" fill="#1B8935"/>
<path d="M0.625 27.9375V29.5C0.625 31.4375 2.0625 33 3.875 33.25H36.125C37.9375 33 39.375 31.4375 39.375 29.5V27.9375H0.625Z" fill="#2A9847"/>
<path d="M35.625 33.3125H36.1875C36.875 33.25 37.5 32.9375 38 32.5C38.1875 32.375 38.3125 32.1875 38.4375 32.0625L38.5 32C38.625 31.875 38.75 31.6875 38.875 31.5C38.875 31.5 38.875 31.4375 38.9375 31.4375C39.0625 31.25 39.125 31.0625 39.1875 30.875V30.8125C39.25 30.625 39.3125 30.4375 39.375 30.1875V30.125C39.4375 29.9375 39.4375 29.6875 39.4375 29.4375V27.875H29.3125L35.625 33.3125Z" fill="#1B8935"/>
<path d="M39.375 29.5C39.375 31.625 37.6875 33.3125 35.625 33.3125H4.375C2.3125 33.3125 0.625 31.625 0.625 29.5" fill="#0F7224"/>
<path d="M13.5625 22.6875V6.6875H4.375C2.3125 6.6875 0.625 8.375 0.625 10.5V22.6875H13.5625Z" fill="#D32027"/>
<path d="M13.5625 6.6875H4.375L13.5625 14.5V6.6875Z" fill="#BF111E"/>
<path d="M13.5625 6.6875H4.5L13.5625 9.5V6.6875Z" fill="#A8071B"/>
<path d="M7.0625 11.0625L8 13.8125H10.875L8.5625 15.5L9.4375 18.25L7.0625 16.5625L4.75 18.25L5.625 15.5L3.3125 13.8125H6.1875L7.0625 11.0625Z" fill="#F3F2F2"/>
</svg>
