<svg width="40" height="40" viewBox="0 0 40 40" fill="none" xmlns="http://www.w3.org/2000/svg">
<g clip-path="url(#clip0_571_18282)">
<path d="M40 29.9998V28.8887H0V29.9998C0 31.1785 0.468253 32.309 1.30175 33.1425C2.13524 33.976 3.2657 34.4442 4.44444 34.4442H35.5556C36.7343 34.4442 37.8648 33.976 38.6983 33.1425C39.5317 32.309 40 31.1785 40 29.9998Z" fill="#D90001"/>
<path d="M0 24.4443H40V28.8888H0V24.4443Z" fill="#FCDC02"/>
<path d="M0 20H40V24.4444H0V20Z" fill="#141414"/>
<path d="M0 15.5557H40V20.0001H0V15.5557Z" fill="#D90001"/>
<path d="M0 11.1113H40V15.5558H0V11.1113Z" fill="#FCDC02"/>
<path d="M0 10.0001V11.1112H40V10.0001C40 8.82137 39.5317 7.69091 38.6983 6.85741C37.8648 6.02392 36.7343 5.55566 35.5556 5.55566H4.44444C3.2657 5.55566 2.13524 6.02392 1.30175 6.85741C0.468253 7.69091 0 8.82137 0 10.0001H0Z" fill="#141414"/>
<path d="M19.9991 24.4446C22.4537 24.4446 24.4436 22.4547 24.4436 20.0001C24.4436 17.5455 22.4537 15.5557 19.9991 15.5557C17.5445 15.5557 15.5547 17.5455 15.5547 20.0001C15.5547 22.4547 17.5445 24.4446 19.9991 24.4446Z" fill="white"/>
<path d="M19.2713 16.7007L18.9746 15.9196C18.9746 15.9196 19.6179 15.694 20.2435 15.9196C20.7202 16.0918 20.7646 16.7007 20.7646 16.7007L20.0191 16.9262L19.2713 16.7007Z" fill="#D90000"/>
<path d="M19.5488 16.5801V15.8201C19.5488 15.8201 19.6722 15.7723 20.0188 15.8201C20.3655 15.8678 20.5222 16.1112 20.5222 16.1112L20.0355 16.7023L19.5488 16.5801V16.5801Z" fill="#FCDC02"/>
<path d="M19.7176 18.7735C19.6253 18.6113 19.7176 17.6624 19.9831 17.5935C20.2487 17.5246 20.7587 16.6913 19.9831 16.4135C19.2076 16.1357 19.0453 16.9457 19.0453 16.9457C19.0453 16.9457 18.2787 17.1713 18.3742 17.3624C18.4664 17.5479 19.1153 17.2935 19.2542 17.4546C19.3931 17.6157 19.1853 17.8479 18.6298 18.4968C18.0742 19.1457 18.4442 20.0246 18.6987 20.2513C18.9531 20.4779 19.2542 20.6501 19.4853 20.8579C19.7164 21.0657 19.9831 21.1824 19.9831 21.1824V21.8535C19.9831 21.8535 19.2076 21.9224 18.8376 21.8768C18.4676 21.8313 18.2131 22.0857 18.1198 22.3857C18.0264 22.6857 18.2587 22.849 18.2587 22.6179C18.2587 22.3868 18.3509 22.5246 18.372 22.7101C18.3931 22.8957 18.5587 22.8257 18.5587 22.5946C18.5587 22.3635 18.6509 22.4557 18.6742 22.5713C18.6976 22.6868 18.8598 22.5246 18.8831 22.3857C18.9064 22.2468 19.1142 22.1768 19.2998 22.1313C19.4853 22.0857 19.982 22.1768 19.982 22.1768V23.4035C19.982 23.4035 18.952 23.4724 18.8598 23.6124C18.7676 23.7524 19.4842 23.7279 19.4842 23.7279C19.4842 23.7279 19.2753 24.1213 19.3687 24.1446C19.462 24.1679 20.1098 23.7513 20.3642 23.7046C20.6187 23.6579 21.012 23.8201 21.0587 23.7046C21.1053 23.589 20.4342 23.4268 20.3642 23.3113C20.2942 23.1957 20.1553 22.1313 20.1553 22.1313C20.1553 22.1313 20.4564 22.1068 20.8276 22.1301C21.1976 22.1535 21.1053 21.829 20.8742 21.5057C20.6431 21.1824 20.8509 21.089 21.2442 21.159C21.6376 21.229 21.9387 21.159 21.9387 20.5335C21.9387 19.9079 19.8098 18.9357 19.7176 18.7735V18.7735ZM20.5276 21.7824H20.2731L20.3653 21.319C20.3653 21.3201 20.6898 21.7824 20.5276 21.7824Z" fill="#141414"/>
<path d="M19.4156 17.5694C19.4478 17.2927 18.9989 17.3149 18.9756 17.5694C18.9522 17.8238 19.37 17.9638 19.4156 17.5694Z" fill="#D90000"/>
<path d="M19.7228 18.9407C19.8505 18.8952 21.285 19.5485 21.6672 19.7219C22.0494 19.8952 22.0039 20.5552 21.9394 20.9541C21.875 21.353 21.6494 21.4752 21.6494 21.4752C21.6494 21.4752 21.3994 20.8307 20.6072 20.5207C19.5439 20.1041 19.2361 19.1141 19.7228 18.9407V18.9407Z" fill="#9CA69C"/>
<path d="M21.337 19.7041C21.8048 19.8263 22.7948 20.0508 22.8826 21.0585C22.9692 22.0652 21.9392 22.6563 21.9392 22.6563L22.1114 22.3441L21.8059 22.4485L21.9392 22.2219L21.4581 22.3263C21.4581 22.3263 22.2637 21.6841 21.9826 21.1108C22.0037 21.5885 21.6837 21.7185 21.6837 21.7185C21.6837 21.7185 21.9592 21.0563 20.7637 20.3297L21.0759 20.2497L20.7648 19.9997L21.4248 20.2497L21.1114 19.8608L21.7359 20.1041L21.337 19.7041V19.7041Z" fill="#D90000"/>
<path d="M19.5489 17.0401C19.5489 17.0701 19.537 17.099 19.5157 17.1202C19.4945 17.1415 19.4657 17.1534 19.4356 17.1534C19.4055 17.1534 19.3767 17.1415 19.3555 17.1202C19.3342 17.099 19.3223 17.0701 19.3223 17.0401C19.3223 17.01 19.3342 16.9812 19.3555 16.96C19.3767 16.9387 19.4055 16.9268 19.4356 16.9268C19.4657 16.9268 19.4945 16.9387 19.5157 16.96C19.537 16.9812 19.5489 17.01 19.5489 17.0401Z" fill="#9CA69C"/>
</g>
<defs>
<clipPath id="clip0_571_18282">
<rect width="40" height="40" fill="white"/>
</clipPath>
</defs>
</svg>
