<svg width="35" height="26" viewBox="0 0 35 26" fill="none" xmlns="http://www.w3.org/2000/svg">
<g clip-path="url(#clip0_633_36636)">
<rect y="0.5" width="35" height="25" rx="5" fill="white"/>
<path fill-rule="evenodd" clip-rule="evenodd" d="M0 0.5H15V12.1667H0V0.5Z" fill="#1A47B8"/>
<path fill-rule="evenodd" clip-rule="evenodd" d="M15 0.5V2.16667H35V0.5H15ZM15 3.83333V5.5H35V3.83333H15ZM15 7.16667V8.83333H35V7.16667H15ZM15 10.5V12.1667H35V10.5H15ZM0 13.8333V15.5H35V13.8333H0ZM0 17.1667V18.8333H35V17.1667H0ZM0 20.5V22.1667H35V20.5H0ZM0 23.8333V25.5H35V23.8333H0Z" fill="#F93939"/>
<path fill-rule="evenodd" clip-rule="evenodd" d="M1.66406 2.16602V3.83268H3.33073V2.16602H1.66406ZM4.9974 2.16602V3.83268H6.66406V2.16602H4.9974ZM8.33073 2.16602V3.83268H9.9974V2.16602H8.33073ZM11.6641 2.16602V3.83268H13.3307V2.16602H11.6641ZM9.9974 3.83268V5.49935H11.6641V3.83268H9.9974ZM6.66406 3.83268V5.49935H8.33073V3.83268H6.66406ZM3.33073 3.83268V5.49935H4.9974V3.83268H3.33073ZM1.66406 5.49935V7.16602H3.33073V5.49935H1.66406ZM4.9974 5.49935V7.16602H6.66406V5.49935H4.9974ZM8.33073 5.49935V7.16602H9.9974V5.49935H8.33073ZM11.6641 5.49935V7.16602H13.3307V5.49935H11.6641ZM1.66406 8.83268V10.4993H3.33073V8.83268H1.66406ZM4.9974 8.83268V10.4993H6.66406V8.83268H4.9974ZM8.33073 8.83268V10.4993H9.9974V8.83268H8.33073ZM11.6641 8.83268V10.4993H13.3307V8.83268H11.6641ZM9.9974 7.16602V8.83268H11.6641V7.16602H9.9974ZM6.66406 7.16602V8.83268H8.33073V7.16602H6.66406ZM3.33073 7.16602V8.83268H4.9974V7.16602H3.33073Z" fill="white"/>
</g>
<defs>
<clipPath id="clip0_633_36636">
<rect y="0.5" width="35" height="25" rx="5" fill="white"/>
</clipPath>
</defs>
</svg>
