<svg width="14" height="17" viewBox="0 0 14 17" fill="none" xmlns="http://www.w3.org/2000/svg">
<path fill-rule="evenodd" clip-rule="evenodd" d="M10.7125 2.00541C10.8491 1.86396 10.9247 1.67451 10.923 1.47786C10.9213 1.28121 10.8424 1.0931 10.7034 0.954045C10.5643 0.814989 10.3762 0.736112 10.1796 0.734403C9.9829 0.732695 9.79345 0.80829 9.652 0.944909L6.7345 3.86166C6.66418 3.93196 6.56881 3.97145 6.46937 3.97145C6.36994 3.97145 6.27457 3.93196 6.20425 3.86166L4.348 2.00541C4.20601 1.87207 4.01771 1.7992 3.82294 1.80222C3.62818 1.80525 3.44223 1.88393 3.30445 2.02162C3.16666 2.1593 3.08785 2.34519 3.08469 2.53996C3.08152 2.73472 3.15426 2.92307 3.2875 3.06516L4.348 4.12566C4.391 4.16866 4.43475 4.20991 4.47925 4.24941H1.75C1.35218 4.24941 0.970644 4.40744 0.68934 4.68875C0.408035 4.97005 0.25 5.35158 0.25 5.74941V13.2494C0.25 13.6472 0.408035 14.0288 0.68934 14.3101C0.970644 14.5914 1.35218 14.7494 1.75 14.7494H12.25C12.6478 14.7494 13.0294 14.5914 13.3107 14.3101C13.592 14.0288 13.75 13.6472 13.75 13.2494V5.75016C13.75 5.35233 13.592 4.9708 13.3107 4.6895C13.0294 4.40819 12.6478 4.25016 12.25 4.25016H8.46025C8.50498 4.21022 8.5485 4.16895 8.59075 4.12641L10.7125 2.00541ZM1.75 5.75016H12.25V13.2502H1.75V5.75016Z" fill="#0BA81D"/>
</svg>
