<svg width="18" height="18" viewBox="0 0 18 18" fill="none" xmlns="http://www.w3.org/2000/svg">
<path d="M6.91283 2.06331H12.3473C12.4128 2.06308 12.4773 2.07919 12.535 2.11019C12.5927 2.14118 12.6418 2.18608 12.6778 2.24082C12.7137 2.29555 12.7355 2.3584 12.741 2.42366C12.7466 2.48892 12.7358 2.55453 12.7096 2.61456L10.5833 7.57731H14.1676C14.1976 7.57762 14.2269 7.58649 14.252 7.60289C14.2772 7.61929 14.2971 7.64253 14.3095 7.66988C14.3218 7.69722 14.3261 7.72753 14.3219 7.75724C14.3176 7.78695 14.3049 7.81481 14.2853 7.83756L6.97583 15.8708C6.95588 15.9006 6.92591 15.9223 6.89134 15.9319C6.85678 15.9415 6.81991 15.9384 6.78743 15.9232C6.75496 15.908 6.72902 15.8816 6.71432 15.8489C6.69962 15.8161 6.69714 15.7792 6.70733 15.7448L7.43258 9.93981H4.07708C4.01192 9.94069 3.94754 9.92541 3.88972 9.89534C3.8319 9.86527 3.78243 9.82134 3.74573 9.76748C3.70903 9.71363 3.68625 9.65151 3.67942 9.5867C3.67259 9.52188 3.68192 9.45639 3.70658 9.39606L6.54158 2.30706C6.57164 2.23365 6.62316 2.17104 6.6894 2.12741C6.75565 2.08378 6.83353 2.06193 6.91283 2.06331Z" stroke="#EC1C24" stroke-width="1.5" stroke-linecap="round" stroke-linejoin="round"/>
</svg>
