<svg width="18" height="18" viewBox="0 0 18 18" fill="none" xmlns="http://www.w3.org/2000/svg">
<path d="M9 1.5C4.86 1.5 1.5 4.86 1.5 9C1.5 13.14 4.86 16.5 9 16.5C13.14 16.5 16.5 13.14 16.5 9C16.5 4.86 13.14 1.5 9 1.5ZM9.75 3.975L10.7625 3.2625C12.1195 3.68233 13.2835 4.56997 14.0475 5.7675L13.755 6.7725L12.7425 7.1175L9.75 5.025V3.975ZM7.2375 3.2625L8.25 3.975V5.025L5.2575 7.1175L4.245 6.7725L3.9525 5.7675C4.72125 4.57439 5.88349 3.68812 7.2375 3.2625ZM5.31 12.8325L4.455 12.9075C3.51495 11.8229 2.99826 10.4353 3 9C3 8.91 3.0075 8.8275 3.015 8.7375L3.765 8.19L4.8 8.55L5.895 11.805L5.31 12.8325ZM10.875 14.6925C10.2825 14.8875 9.6525 15 9 15C8.3475 15 7.7175 14.8875 7.125 14.6925L6.6075 13.575L7.0875 12.75H10.92L11.4 13.5825L10.875 14.6925ZM10.7025 11.25H7.2975L6.285 8.235L9 6.33L11.7225 8.235L10.7025 11.25ZM13.545 12.9075L12.69 12.8325L12.0975 11.805L13.1925 8.55L14.235 8.1975L14.985 8.745C14.9925 8.8275 15 8.91 15 9C15 10.4925 14.4525 11.8575 13.545 12.9075Z" fill="white"/>
</svg>
